<svg width="795" height="365" viewBox="0 0 795 365" fill="none" xmlns="http://www.w3.org/2000/svg">
<path d="M0 1H795V331.996C795 331.996 721.86 363.416 584.06 351.165C446.26 338.914 413.4 258.633 271.36 320.538C129.32 382.443 0 331.996 0 331.996V1Z" fill="#D80F0F" fill-opacity="0.4"/>
<path d="M0 1H795V331.942C795 331.942 686.88 294.806 593.6 323.125C500.32 351.443 534.24 383.467 328.6 345.671C122.96 307.875 0 365 0 365V1Z" fill="#D80F0F" fill-opacity="0.4"/>
<path d="M0 0H795V355.253C795 355.253 686.88 364.846 640.24 315.287C593.6 265.728 396.44 363.306 257.58 315.287C118.72 267.268 0 336.825 0 336.825V0Z" fill="#D80F0F" fill-opacity="0.4"/>
<g clip-path="url(#clip0)">
<path d="M358.048 161.46H352.273C350.777 161.46 349.566 162.615 349.566 164.043V195.034C349.566 196.461 350.777 197.616 352.273 197.616H358.048C362.527 197.616 366.17 194.141 366.17 189.868V169.208C366.17 164.936 362.527 161.46 358.048 161.46Z" fill="#FBE1E1"/>
<path d="M441.154 166.47C440.829 165.954 440.396 165.541 439.909 165.179C437.915 163.516 434.557 163.673 432.6 165.696L420.31 179.228L419.931 179.641C418.415 181.243 416.249 182.121 413.976 182.121H392.969C391.453 182.121 390.262 180.984 390.262 179.538C390.262 178.092 391.453 176.956 392.969 176.956H409.482C412.46 176.956 414.896 174.631 414.896 171.791V171.739C414.842 168.898 412.46 166.625 409.482 166.625H399.682C398.059 166.625 396.319 166.057 394.918 164.921C388.313 159.394 378.676 159.033 371.583 163.733V195.498C376.943 196.893 382.466 197.616 388.042 197.616H412.189C418.144 197.616 423.775 194.93 427.348 190.385L440.342 173.857C442.238 171.482 442.381 168.227 441.154 166.47Z" fill="#FBE1E1"/>
</g>
<g clip-path="url(#clip1)" filter="url(#filter0_d)">
<path d="M407.015 152.786C416.159 152.786 423.573 145.608 423.573 136.753C423.573 127.899 407.015 111.559 407.015 111.559V152.786Z" fill="white"/>
<path d="M390.456 136.753C390.456 145.608 397.869 152.786 407.014 152.786V111.559C407.014 111.559 390.456 127.899 390.456 136.753ZM396.369 136.753C396.375 141.811 400.608 145.909 405.831 145.915C400.608 145.909 396.375 141.811 396.369 136.753Z" fill="#FCC0B0"/>
<path d="M415.293 105.833C415.299 110.891 419.532 114.989 424.755 114.995V90.8916C419.669 96.7953 415.293 103.22 415.293 105.833Z" fill="#FCC0B0"/>
<path d="M424.755 90.887V114.994C429.978 114.989 434.211 110.89 434.217 105.833C434.217 103.409 430.114 97.0941 424.755 90.887Z" fill="white"/>
<path d="M407.746 94.61C406.524 92.2884 405.092 90.0765 403.466 88V100.107C405.44 100.106 407.207 98.9196 407.9 97.1298C408.202 96.3039 408.146 95.3954 407.746 94.61Z" fill="white"/>
<path d="M403.466 100.107V88.0012C401.846 90.0634 400.413 92.257 399.182 94.5578C398.783 95.3428 398.723 96.2493 399.015 97.0772C399.693 98.8932 401.472 100.104 403.466 100.107Z" fill="#FCC0B0"/>
<path d="M405.832 147.061C399.955 147.054 395.193 142.443 395.187 136.753H397.552C397.558 141.179 401.261 144.764 405.832 144.77V147.061Z" fill="#FF5454"/>
</g>
<defs>
<filter id="filter0_d" x="374.398" y="88" width="75.4653" height="73.3412" filterUnits="userSpaceOnUse" color-interpolation-filters="sRGB">
<feFlood flood-opacity="0" result="BackgroundImageFix"/>
<feColorMatrix in="SourceAlpha" type="matrix" values="0 0 0 0 0 0 0 0 0 0 0 0 0 0 0 0 0 0 127 0"/>
<feOffset dy="4.27748"/>
<feGaussianBlur stdDeviation="2.13874"/>
<feColorMatrix type="matrix" values="0 0 0 0 0 0 0 0 0 0 0 0 0 0 0 0 0 0 0.25 0"/>
<feBlend mode="normal" in2="BackgroundImageFix" result="effect1_dropShadow"/>
<feBlend mode="normal" in="SourceGraphic" in2="effect1_dropShadow" result="shape"/>
</filter>
<clipPath id="clip0">
<rect width="92.4" height="88.1517" fill="white" transform="translate(350 153.848)"/>
</clipPath>
<clipPath id="clip1">
<rect width="66.9103" height="64.7862" fill="white" transform="translate(378.676 88)"/>
</clipPath>
</defs>
</svg>
