<svg width="795" height="365" viewBox="0 0 795 365" fill="none" xmlns="http://www.w3.org/2000/svg">
<path d="M0 1H795V331.996C795 331.996 721.86 363.416 584.06 351.165C446.26 338.914 413.4 258.633 271.36 320.538C129.32 382.443 0 331.996 0 331.996V1Z" fill="#D80F0F" fill-opacity="0.4"/>
<path d="M0 1H795V331.942C795 331.942 686.88 294.806 593.6 323.125C500.32 351.443 534.24 383.467 328.6 345.671C122.96 307.875 0 365 0 365V1Z" fill="#D80F0F" fill-opacity="0.4"/>
<path d="M0 0H795V355.253C795 355.253 686.88 364.846 640.24 315.287C593.6 265.728 396.44 363.306 257.58 315.287C118.72 267.268 0 336.825 0 336.825V0Z" fill="#D80F0F" fill-opacity="0.4"/>
<path d="M31.6237 115.125V78.6594C31.6237 78.303 31.7662 78 32.0514 77.7505C32.3722 77.501 32.7643 77.3762 33.2277 77.3762H42.6916C46.078 77.3762 48.7871 78.303 50.8189 80.1566C52.8507 81.9745 53.8666 84.844 53.8666 88.765V105.019C53.8666 108.976 52.8507 111.881 50.8189 113.735C48.7871 115.553 46.078 116.462 42.6916 116.462H33.2277C32.7643 116.462 32.3722 116.337 32.0514 116.087C31.7662 115.802 31.6237 115.481 31.6237 115.125ZM35.1526 113.2H42.6916C45.1155 113.2 46.9869 112.523 48.3058 111.168C49.6604 109.778 50.3376 107.728 50.3376 105.019V88.765C50.3376 86.0559 49.6604 84.0241 48.3058 82.6696C46.9869 81.315 45.1155 80.6378 42.6916 80.6378H35.1526V113.2ZM59.03 106.677V100.849C59.03 98.1398 60.0281 95.805 62.0243 93.8445C64.0204 91.8483 66.3909 90.8503 69.1356 90.8503C71.8803 90.8503 74.2686 91.8305 76.3004 93.791C78.3322 95.7515 79.3481 98.1042 79.3481 100.849V106.677C79.3481 109.35 78.3143 111.721 76.2469 113.788C74.2151 115.82 71.8446 116.836 69.1356 116.836C66.4622 116.836 64.1095 115.82 62.0777 113.788C60.0459 111.721 59.03 109.35 59.03 106.677ZM62.5055 106.677C62.5055 108.495 63.1471 110.117 64.4303 111.543C65.7492 112.933 67.3176 113.628 69.1356 113.628C70.9892 113.628 72.5754 112.933 73.8943 111.543C75.2132 110.117 75.8726 108.495 75.8726 106.677V100.849C75.8726 99.1022 75.1953 97.5338 73.8408 96.1436C72.5219 94.7535 70.9535 94.0584 69.1356 94.0584C67.3176 94.0584 65.7492 94.7535 64.4303 96.1436C63.1471 97.5338 62.5055 99.1022 62.5055 100.849V106.677ZM84.255 115.071V92.4543C84.255 92.0622 84.4155 91.7592 84.7363 91.5453C85.0571 91.2958 85.467 91.1711 85.966 91.1711C86.3938 91.1711 86.7681 91.2958 87.0889 91.5453C87.4097 91.7949 87.5701 92.0979 87.5701 92.4543V94.9139C88.1761 93.7732 89.1029 92.8108 90.3505 92.0266C91.5981 91.2424 93.0595 90.8503 94.7349 90.8503C97.3014 90.8503 99.5292 91.8305 101.418 93.791C103.308 95.7515 104.252 98.1042 104.252 100.849V115.071C104.252 115.499 104.074 115.838 103.718 116.087C103.361 116.337 102.951 116.462 102.488 116.462C102.06 116.462 101.668 116.337 101.311 116.087C100.955 115.838 100.777 115.499 100.777 115.071V100.849C100.777 99.1022 100.117 97.5338 98.7985 96.1436C97.4796 94.7535 95.9112 94.0584 94.0933 94.0584C92.4179 94.0584 90.9386 94.6822 89.6554 95.9298C88.3721 97.1774 87.7305 98.8171 87.7305 100.849V115.071C87.7305 115.428 87.5523 115.749 87.1958 116.034C86.8394 116.319 86.4294 116.462 85.966 116.462C85.467 116.462 85.0571 116.319 84.7363 116.034C84.4155 115.749 84.255 115.428 84.255 115.071ZM108.214 109.778C108.214 107.033 109.265 105.126 111.369 104.057C113.507 102.988 116.609 102.453 120.672 102.453H123.399V101.17C123.399 99.2092 122.882 97.516 121.848 96.0902C120.815 94.6287 119.228 93.898 117.09 93.898C115.664 93.898 114.363 94.1653 113.187 94.7C112.046 95.199 111.44 95.4485 111.369 95.4485C110.941 95.4485 110.602 95.2525 110.353 94.8604C110.103 94.4683 109.978 94.0405 109.978 93.5772C109.978 92.8999 110.745 92.2761 112.278 91.7058C113.81 91.1354 115.45 90.8503 117.197 90.8503C120.547 90.8503 122.989 91.8305 124.522 93.791C126.09 95.7159 126.874 98.1754 126.874 101.17V115.071C126.874 115.464 126.714 115.802 126.393 116.087C126.072 116.337 125.663 116.462 125.163 116.462C124.7 116.462 124.308 116.337 123.987 116.087C123.702 115.802 123.559 115.464 123.559 115.071V112.719C121.171 115.464 118.48 116.836 115.486 116.836C113.347 116.836 111.6 116.248 110.246 115.071C108.891 113.86 108.214 112.095 108.214 109.778ZM111.689 109.457C111.689 110.954 112.117 112.077 112.973 112.826C113.828 113.539 114.951 113.895 116.341 113.895C118.017 113.895 119.603 113.271 121.1 112.024C122.633 110.776 123.399 109.529 123.399 108.281V104.859H121.153C119.727 104.859 118.516 104.912 117.517 105.019C116.555 105.126 115.593 105.322 114.63 105.608C113.668 105.893 112.937 106.356 112.438 106.998C111.939 107.639 111.689 108.459 111.689 109.457ZM132.514 108.602V80.4239C132.514 80.0674 132.692 79.7645 133.049 79.5149C133.405 79.2654 133.797 79.1407 134.225 79.1407C134.689 79.1407 135.098 79.2654 135.455 79.5149C135.811 79.7645 135.99 80.0674 135.99 80.4239V91.1711H142.887C143.243 91.1711 143.529 91.3137 143.743 91.5988C143.992 91.884 144.117 92.2226 144.117 92.6147C144.117 93.0068 143.992 93.3455 143.743 93.6306C143.529 93.9158 143.243 94.0584 142.887 94.0584H135.99V108.602C135.99 110.348 136.346 111.578 137.059 112.291C137.808 112.968 139.109 113.307 140.962 113.307H142.459C142.923 113.307 143.297 113.467 143.582 113.788C143.903 114.073 144.063 114.43 144.063 114.858C144.063 115.285 143.903 115.66 143.582 115.98C143.297 116.301 142.923 116.462 142.459 116.462H140.962C135.33 116.462 132.514 113.842 132.514 108.602ZM146.26 106.677V100.688C146.26 98.015 147.258 95.7159 149.254 93.791C151.251 91.8305 153.657 90.8503 156.473 90.8503C159.182 90.8503 161.516 91.777 163.477 93.6306C165.473 95.4842 166.471 97.8012 166.471 100.582C166.471 101.58 166.346 102.382 166.097 102.988C165.883 103.594 165.509 104.021 164.974 104.271C164.475 104.52 164.012 104.681 163.584 104.752C163.156 104.823 162.568 104.859 161.819 104.859H149.736V106.837C149.736 108.94 150.484 110.634 151.981 111.917C153.514 113.164 155.475 113.788 157.863 113.788C159.075 113.788 160.126 113.61 161.017 113.254C161.944 112.897 162.639 112.541 163.103 112.184C163.602 111.828 163.994 111.65 164.279 111.65C164.671 111.65 165.01 111.846 165.295 112.238C165.616 112.594 165.776 112.951 165.776 113.307C165.776 114.056 165.01 114.84 163.477 115.66C161.944 116.444 160.037 116.836 157.756 116.836C154.37 116.836 151.607 115.909 149.468 114.056C147.329 112.166 146.26 109.707 146.26 106.677ZM149.736 102.293H160.429C161.499 102.293 162.212 102.186 162.568 101.972C162.924 101.722 163.103 101.223 163.103 100.475C163.103 98.6923 162.461 97.1239 161.178 95.7694C159.93 94.4148 158.344 93.7376 156.419 93.7376C154.566 93.7376 152.979 94.3792 151.66 95.6624C150.377 96.9457 149.736 98.4784 149.736 100.261V102.293ZM181.507 115.125V78.7129C181.507 78.2852 181.667 77.9643 181.988 77.7505C182.309 77.501 182.683 77.3762 183.111 77.3762H191.88C193.519 77.3762 194.945 77.501 196.157 77.7505C197.369 78 198.492 78.4456 199.526 79.0872C200.595 79.7288 201.397 80.6734 201.932 81.921C202.502 83.133 202.787 84.6479 202.787 86.4658C202.787 88.6759 202.377 90.5473 201.557 92.08C200.738 93.6128 199.633 94.6822 198.242 95.2881C200.025 96.0011 201.379 97.0704 202.306 98.4963C203.268 99.9221 203.75 101.918 203.75 104.485V105.447C203.75 109.297 202.787 112.095 200.862 113.842C198.937 115.588 196.371 116.462 193.163 116.462H183.111C182.612 116.462 182.22 116.337 181.934 116.087C181.649 115.802 181.507 115.481 181.507 115.125ZM184.982 113.2H192.735C197.726 113.2 200.221 110.562 200.221 105.287V104.378C200.221 99.3161 197.726 96.7853 192.735 96.7853H184.982V113.2ZM184.982 93.7376H191.987C194.517 93.7376 196.353 93.2207 197.494 92.187C198.67 91.1176 199.258 89.3353 199.258 86.8401C199.258 84.5232 198.617 82.9191 197.333 82.028C196.05 81.1012 194.197 80.6378 191.773 80.6378H184.982V93.7376ZM209.208 115.071V76.9484C209.208 76.592 209.368 76.289 209.689 76.0395C210.01 75.79 210.42 75.6652 210.919 75.6652C211.418 75.6652 211.828 75.79 212.149 76.0395C212.505 76.289 212.683 76.592 212.683 76.9484V115.071C212.683 115.428 212.505 115.749 212.149 116.034C211.828 116.319 211.418 116.462 210.919 116.462C210.456 116.462 210.046 116.319 209.689 116.034C209.368 115.749 209.208 115.428 209.208 115.071ZM218.032 106.677V100.849C218.032 98.1398 219.03 95.805 221.026 93.8445C223.022 91.8483 225.393 90.8503 228.138 90.8503C230.882 90.8503 233.271 91.8305 235.302 93.791C237.334 95.7515 238.35 98.1042 238.35 100.849V106.677C238.35 109.35 237.316 111.721 235.249 113.788C233.217 115.82 230.847 116.836 228.138 116.836C225.464 116.836 223.111 115.82 221.08 113.788C219.048 111.721 218.032 109.35 218.032 106.677ZM221.507 106.677C221.507 108.495 222.149 110.117 223.432 111.543C224.751 112.933 226.32 113.628 228.138 113.628C229.991 113.628 231.577 112.933 232.896 111.543C234.215 110.117 234.875 108.495 234.875 106.677V100.849C234.875 99.1022 234.197 97.5338 232.843 96.1436C231.524 94.7535 229.955 94.0584 228.138 94.0584C226.32 94.0584 224.751 94.7535 223.432 96.1436C222.149 97.5338 221.507 99.1022 221.507 100.849V106.677ZM242.241 106.677V100.849C242.241 98.1398 243.239 95.805 245.235 93.8445C247.231 91.8483 249.602 90.8503 252.347 90.8503C255.091 90.8503 257.48 91.8305 259.511 93.791C261.543 95.7515 262.559 98.1042 262.559 100.849V106.677C262.559 109.35 261.525 111.721 259.458 113.788C257.426 115.82 255.056 116.836 252.347 116.836C249.673 116.836 247.321 115.82 245.289 113.788C243.257 111.721 242.241 109.35 242.241 106.677ZM245.717 106.677C245.717 108.495 246.358 110.117 247.641 111.543C248.96 112.933 250.529 113.628 252.347 113.628C254.2 113.628 255.786 112.933 257.105 111.543C258.424 110.117 259.084 108.495 259.084 106.677V100.849C259.084 99.1022 258.406 97.5338 257.052 96.1436C255.733 94.7535 254.165 94.0584 252.347 94.0584C250.529 94.0584 248.96 94.7535 247.641 96.1436C246.358 97.5338 245.717 99.1022 245.717 100.849V106.677ZM266.504 106.677V100.849C266.504 98.1042 267.43 95.7515 269.284 93.791C271.173 91.8305 273.437 90.8503 276.075 90.8503C277.714 90.8503 279.14 91.2424 280.352 92.0266C281.6 92.8108 282.526 93.7732 283.132 94.9139V76.9484C283.132 76.592 283.311 76.289 283.667 76.0395C284.024 75.79 284.451 75.6652 284.95 75.6652C285.449 75.6652 285.841 75.79 286.127 76.0395C286.447 76.289 286.608 76.592 286.608 76.9484V115.071C286.608 115.428 286.447 115.749 286.127 116.034C285.806 116.319 285.414 116.462 284.95 116.462C284.523 116.462 284.13 116.319 283.774 116.034C283.453 115.749 283.293 115.428 283.293 115.071V112.719C282.687 113.86 281.707 114.84 280.352 115.66C279.033 116.444 277.572 116.836 275.968 116.836C273.437 116.836 271.227 115.82 269.338 113.788C267.448 111.721 266.504 109.35 266.504 106.677ZM269.979 106.677C269.979 108.459 270.639 110.063 271.957 111.489C273.276 112.915 274.827 113.628 276.609 113.628C278.32 113.628 279.835 112.986 281.154 111.703C282.473 110.42 283.132 109.297 283.132 108.334V100.849C283.132 98.8171 282.473 97.1774 281.154 95.9298C279.871 94.6822 278.374 94.0584 276.663 94.0584C274.845 94.0584 273.276 94.7535 271.957 96.1436C270.639 97.5338 269.979 99.1022 269.979 100.849V106.677ZM310.817 105.608C310.817 103.077 311.512 100.902 312.902 99.0844C314.292 97.2665 316.021 95.8941 318.088 94.9673C316.698 93.3633 315.629 91.8483 314.88 90.4225C314.132 88.9967 313.757 87.3748 313.757 85.5569C313.757 82.7409 314.684 80.5308 316.538 78.9268C318.391 77.2871 320.69 76.4672 323.435 76.4672C326.037 76.4672 328.14 77.0732 329.744 78.2852C331.348 79.4971 332.15 80.6021 332.15 81.6002C332.15 82.0636 331.99 82.4557 331.669 82.7765C331.348 83.0617 330.956 83.2043 330.493 83.2043C330.208 83.2043 329.869 83.0082 329.477 82.6161C329.121 82.224 328.746 81.7963 328.354 81.3329C327.998 80.8338 327.392 80.3883 326.536 79.9962C325.681 79.6041 324.701 79.408 323.595 79.408C321.671 79.408 320.156 79.9962 319.051 81.1725C317.946 82.3131 317.393 83.8459 317.393 85.7708C317.393 86.9471 317.66 88.1234 318.195 89.2997C318.73 90.476 319.282 91.4384 319.853 92.187C320.459 92.8999 321.296 93.8445 322.366 95.0208L333.22 106.891C334.254 104.538 334.86 101.294 335.038 97.1595C335.073 96.6249 335.198 96.2506 335.412 96.0367C335.626 95.8228 336.036 95.7159 336.642 95.7159C337.64 95.7159 338.139 96.3397 338.139 97.5873C338.139 101.9 337.248 105.804 335.466 109.297L340.385 114.59C340.598 114.84 340.705 115.089 340.705 115.339C340.705 115.731 340.527 116.087 340.171 116.408C339.85 116.693 339.493 116.836 339.101 116.836C338.745 116.836 338.406 116.676 338.085 116.355L333.755 111.703C331.152 115.232 327.588 116.996 323.061 116.996C319.318 116.996 316.342 115.891 314.132 113.681C311.922 111.471 310.817 108.78 310.817 105.608ZM314.399 105.287C314.399 107.675 315.219 109.689 316.858 111.329C318.498 112.968 320.726 113.788 323.542 113.788C327.107 113.788 329.78 112.345 331.562 109.457L320.067 97.213C319.282 97.6764 318.641 98.1042 318.142 98.4963C317.643 98.8527 317.055 99.3696 316.377 100.047C315.736 100.688 315.237 101.455 314.88 102.346C314.559 103.237 314.399 104.217 314.399 105.287ZM354.797 115.071V78.6594C354.797 77.8752 355.296 77.4475 356.294 77.3762H366.132C369.483 77.3762 372.156 78.2852 374.152 80.1031C376.149 81.921 377.147 84.7905 377.147 88.7115V89.2462C377.147 93.1672 376.131 96.0545 374.099 97.9081C372.103 99.726 369.412 100.635 366.025 100.635H358.326V115.071C358.326 115.499 358.148 115.838 357.791 116.087C357.435 116.337 357.025 116.462 356.561 116.462C356.062 116.462 355.635 116.337 355.278 116.087C354.957 115.838 354.797 115.499 354.797 115.071ZM358.326 97.5873H366.025C368.449 97.5873 370.321 96.91 371.639 95.5555C372.958 94.201 373.618 92.1513 373.618 89.4066V88.765C373.618 83.3468 371.087 80.6378 366.025 80.6378H358.326V97.5873ZM381.924 115.071V76.9484C381.924 76.592 382.084 76.289 382.405 76.0395C382.726 75.79 383.136 75.6652 383.635 75.6652C384.134 75.6652 384.544 75.79 384.865 76.0395C385.221 76.289 385.399 76.592 385.399 76.9484V115.071C385.399 115.428 385.221 115.749 384.865 116.034C384.544 116.319 384.134 116.462 383.635 116.462C383.171 116.462 382.761 116.319 382.405 116.034C382.084 115.749 381.924 115.428 381.924 115.071ZM389.999 109.778C389.999 107.033 391.051 105.126 393.154 104.057C395.293 102.988 398.394 102.453 402.457 102.453H405.184V101.17C405.184 99.2092 404.667 97.516 403.634 96.0902C402.6 94.6287 401.014 93.898 398.875 93.898C397.449 93.898 396.148 94.1653 394.972 94.7C393.831 95.199 393.225 95.4485 393.154 95.4485C392.726 95.4485 392.387 95.2525 392.138 94.8604C391.888 94.4683 391.764 94.0405 391.764 93.5772C391.764 92.8999 392.53 92.2761 394.063 91.7058C395.596 91.1354 397.235 90.8503 398.982 90.8503C402.333 90.8503 404.774 91.8305 406.307 93.791C407.875 95.7159 408.66 98.1754 408.66 101.17V115.071C408.66 115.464 408.499 115.802 408.178 116.087C407.858 116.337 407.448 116.462 406.949 116.462C406.485 116.462 406.093 116.337 405.772 116.087C405.487 115.802 405.345 115.464 405.345 115.071V112.719C402.956 115.464 400.265 116.836 397.271 116.836C395.132 116.836 393.386 116.248 392.031 115.071C390.676 113.86 389.999 112.095 389.999 109.778ZM393.475 109.457C393.475 110.954 393.902 112.077 394.758 112.826C395.613 113.539 396.736 113.895 398.126 113.895C399.802 113.895 401.388 113.271 402.885 112.024C404.418 110.776 405.184 109.529 405.184 108.281V104.859H402.939C401.513 104.859 400.301 104.912 399.303 105.019C398.34 105.126 397.378 105.322 396.415 105.608C395.453 105.893 394.722 106.356 394.223 106.998C393.724 107.639 393.475 108.459 393.475 109.457ZM412.802 112.986C412.802 112.63 412.927 112.273 413.177 111.917C413.426 111.56 413.711 111.382 414.032 111.382C414.282 111.382 414.674 111.596 415.208 112.024C415.743 112.416 416.509 112.826 417.507 113.254C418.506 113.681 419.7 113.895 421.09 113.895C422.979 113.895 424.369 113.539 425.26 112.826C426.152 112.113 426.597 111.204 426.597 110.099C426.597 108.816 426.134 107.8 425.207 107.051C424.316 106.267 423.229 105.697 421.945 105.34C420.662 104.984 419.361 104.592 418.042 104.164C416.759 103.736 415.654 103.041 414.727 102.079C413.836 101.081 413.39 99.7617 413.39 98.122C413.39 96.1615 414.086 94.4683 415.476 93.0425C416.902 91.581 419.022 90.8503 421.838 90.8503C423.585 90.8503 425.207 91.1354 426.704 91.7058C428.237 92.2404 429.003 92.8286 429.003 93.4702C429.003 93.8267 428.861 94.2188 428.575 94.6465C428.29 95.0743 427.952 95.2881 427.56 95.2881C427.453 95.2881 426.793 95.0386 425.581 94.5396C424.369 94.0405 423.14 93.791 421.892 93.791C420.11 93.791 418.773 94.2188 417.882 95.0743C416.991 95.9298 416.545 96.8922 416.545 97.9616C416.545 99.0666 416.991 99.9399 417.882 100.582C418.809 101.223 419.914 101.722 421.197 102.079C422.516 102.399 423.817 102.792 425.1 103.255C426.419 103.683 427.524 104.467 428.415 105.608C429.342 106.713 429.805 108.156 429.805 109.939C429.805 112.077 429.039 113.77 427.506 115.018C426.009 116.23 423.906 116.836 421.197 116.836C418.844 116.836 416.848 116.426 415.208 115.606C413.604 114.751 412.802 113.877 412.802 112.986ZM434.177 115.071V92.4543C434.177 92.0979 434.338 91.7949 434.658 91.5453C434.979 91.2958 435.389 91.1711 435.888 91.1711C436.352 91.1711 436.744 91.2958 437.064 91.5453C437.385 91.7949 437.546 92.0979 437.546 92.4543V94.9139C438.187 93.7376 439.114 92.7751 440.326 92.0266C441.574 91.2424 443.017 90.8503 444.657 90.8503C446.368 90.8503 447.901 91.3493 449.255 92.3474C450.61 93.3098 451.608 94.5931 452.249 96.1971C453.141 94.4505 454.317 93.1316 455.778 92.2404C457.24 91.3137 458.773 90.8503 460.377 90.8503C462.801 90.8503 464.904 91.7592 466.686 93.5772C468.468 95.3951 469.359 97.819 469.359 100.849V115.071C469.359 115.428 469.181 115.749 468.825 116.034C468.504 116.319 468.094 116.462 467.595 116.462C467.132 116.462 466.722 116.319 466.365 116.034C466.044 115.749 465.884 115.428 465.884 115.071V100.849C465.884 98.7458 465.26 97.0882 464.013 95.8763C462.801 94.6643 461.393 94.0584 459.789 94.0584C458.149 94.0584 456.687 94.6822 455.404 95.9298C454.157 97.1417 453.533 98.7101 453.533 100.635V115.125C453.533 116.016 452.945 116.462 451.768 116.462C450.628 116.462 450.057 116.016 450.057 115.125V100.688C450.057 98.7992 449.451 97.2308 448.239 95.9832C447.063 94.7 445.637 94.0584 443.962 94.0584C442.287 94.0584 440.807 94.6822 439.524 95.9298C438.276 97.1417 437.653 98.7814 437.653 100.849V115.071C437.653 115.428 437.474 115.749 437.118 116.034C436.761 116.319 436.352 116.462 435.888 116.462C435.425 116.462 435.015 116.319 434.658 116.034C434.338 115.749 434.177 115.428 434.177 115.071ZM473.331 109.778C473.331 107.033 474.382 105.126 476.485 104.057C478.624 102.988 481.725 102.453 485.789 102.453H488.516V101.17C488.516 99.2092 487.999 97.516 486.965 96.0902C485.931 94.6287 484.345 93.898 482.206 93.898C480.781 93.898 479.48 94.1653 478.303 94.7C477.163 95.199 476.557 95.4485 476.485 95.4485C476.058 95.4485 475.719 95.2525 475.469 94.8604C475.22 94.4683 475.095 94.0405 475.095 93.5772C475.095 92.8999 475.862 92.2761 477.394 91.7058C478.927 91.1354 480.567 90.8503 482.313 90.8503C485.664 90.8503 488.106 91.8305 489.639 93.791C491.207 95.7159 491.991 98.1754 491.991 101.17V115.071C491.991 115.464 491.831 115.802 491.51 116.087C491.189 116.337 490.779 116.462 490.28 116.462C489.817 116.462 489.425 116.337 489.104 116.087C488.819 115.802 488.676 115.464 488.676 115.071V112.719C486.288 115.464 483.597 116.836 480.602 116.836C478.464 116.836 476.717 116.248 475.362 115.071C474.008 113.86 473.331 112.095 473.331 109.778ZM476.806 109.457C476.806 110.954 477.234 112.077 478.089 112.826C478.945 113.539 480.068 113.895 481.458 113.895C483.133 113.895 484.719 113.271 486.217 112.024C487.749 110.776 488.516 109.529 488.516 108.281V104.859H486.27C484.844 104.859 483.632 104.912 482.634 105.019C481.672 105.126 480.709 105.322 479.747 105.608C478.784 105.893 478.054 106.356 477.555 106.998C477.056 107.639 476.806 108.459 476.806 109.457Z" fill="white"/>
<path d="M30.882 203.485H38.004C39.1846 203.485 40.2754 203.639 41.2763 203.947C42.2772 204.255 43.137 204.717 43.8556 205.333C44.5999 205.923 45.1645 206.667 45.5495 207.565C45.9601 208.438 46.1655 209.465 46.1655 210.645C46.1655 211.851 45.9473 212.917 45.511 213.841C45.0747 214.739 44.4716 215.496 43.7016 216.112C42.9574 216.702 42.0591 217.151 41.0068 217.459C39.9802 217.767 38.851 217.921 37.6191 217.921H33.6538V227.738H30.882V203.485ZM33.6538 215.65H36.4256C37.4266 215.65 38.3505 215.573 39.1975 215.419C40.0444 215.265 40.763 215.008 41.3533 214.649C41.9436 214.264 42.4056 213.751 42.7392 213.109C43.0728 212.467 43.2397 211.659 43.2397 210.684C43.2397 209.734 43.06 208.939 42.7007 208.297C42.3671 207.655 41.9179 207.142 41.3533 206.757C40.8143 206.372 40.1856 206.103 39.4669 205.949C38.7483 205.795 38.0169 205.718 37.2726 205.718H33.6538V215.65ZM49.6194 227.738V209.644H51.5443L52.0447 213.263C52.481 212.108 53.2125 211.184 54.2391 210.491C55.2657 209.773 56.4334 209.413 57.7423 209.413C58.384 209.413 58.9358 209.465 59.3977 209.567C59.8597 209.67 60.2318 209.785 60.5141 209.914L60.0137 212.301C59.7057 212.147 59.3592 212.018 58.9742 211.916C58.5893 211.813 58.1401 211.762 57.6268 211.762C56.8826 211.762 56.1896 211.903 55.548 212.185C54.9064 212.442 54.3417 212.827 53.8541 213.34C53.3665 213.853 52.9815 214.508 52.6992 215.303C52.4169 216.099 52.2757 217.01 52.2757 218.037V227.738H49.6194ZM77.8337 218.499C77.8337 220.013 77.6156 221.373 77.1793 222.579C76.743 223.76 76.1398 224.761 75.3699 225.582C74.5999 226.403 73.6888 227.032 72.6366 227.469C71.61 227.879 70.5064 228.085 69.3258 228.085C68.1196 228.085 67.0031 227.892 65.9765 227.507C64.95 227.096 64.0645 226.506 63.3202 225.736C62.576 224.941 61.9857 223.978 61.5494 222.849C61.1131 221.694 60.8949 220.372 60.8949 218.884C60.8949 217.369 61.1131 216.022 61.5494 214.841C62.0113 213.661 62.6273 212.673 63.3972 211.877C64.1672 211.056 65.0654 210.44 66.092 210.029C67.1443 209.619 68.2736 209.413 69.4798 209.413C70.6604 209.413 71.764 209.606 72.7906 209.991C73.8172 210.376 74.7026 210.953 75.4469 211.723C76.1912 212.493 76.7686 213.443 77.1793 214.572C77.6156 215.701 77.8337 217.01 77.8337 218.499ZM75.0234 218.691C75.0234 217.434 74.8566 216.356 74.523 215.457C74.215 214.533 73.7915 213.789 73.2525 213.225C72.7392 212.634 72.1361 212.211 71.4432 211.954C70.7759 211.672 70.0829 211.531 69.3643 211.531C68.6457 211.531 67.9399 211.659 67.247 211.916C66.5797 212.172 65.9765 212.583 65.4376 213.148C64.9243 213.712 64.5008 214.456 64.1672 215.38C63.8592 216.279 63.7052 217.382 63.7052 218.691C63.7052 220 63.8592 221.116 64.1672 222.04C64.5008 222.964 64.9371 223.721 65.4761 224.312C66.015 224.876 66.631 225.3 67.324 225.582C68.0169 225.839 68.7227 225.967 69.4413 225.967C70.1599 225.967 70.8529 225.852 71.5202 225.621C72.1875 225.364 72.7777 224.953 73.291 224.389C73.83 223.798 74.2535 223.041 74.5615 222.117C74.8694 221.193 75.0234 220.051 75.0234 218.691ZM93.6766 209.644H96.3714V227.738H94.331L93.9461 225.467H93.8306C93.1633 226.185 92.3292 226.801 91.3282 227.315C90.3273 227.828 89.1596 228.085 87.825 228.085C85.9514 228.085 84.4372 227.571 83.2823 226.545C82.1274 225.492 81.5499 223.888 81.5499 221.732V209.644H84.2447V221.309C84.2447 222.207 84.3474 222.952 84.5527 223.542C84.758 224.132 85.0403 224.607 85.3996 224.966C85.7846 225.326 86.2209 225.582 86.7086 225.736C87.2219 225.865 87.7737 225.929 88.3639 225.929C89.4675 225.929 90.4685 225.685 91.3667 225.197C92.2907 224.71 93.0606 224.081 93.6766 223.311V209.644ZM113.245 200.405H115.939V227.738H113.707L113.36 225.89H113.283C112.616 226.609 111.872 227.161 111.05 227.546C110.229 227.905 109.19 228.085 107.932 228.085C106.957 228.085 106.007 227.892 105.083 227.507C104.159 227.122 103.325 226.545 102.581 225.775C101.837 225.005 101.233 224.042 100.772 222.887C100.335 221.707 100.117 220.321 100.117 218.73C100.117 217.318 100.297 216.035 100.656 214.88C101.041 213.725 101.58 212.75 102.273 211.954C102.992 211.133 103.851 210.504 104.852 210.068C105.879 209.631 107.034 209.413 108.317 209.413C109.267 209.413 110.152 209.554 110.973 209.837C111.82 210.119 112.577 210.555 113.245 211.146V200.405ZM113.245 213.61C112.68 212.942 112.013 212.429 111.243 212.07C110.473 211.685 109.677 211.492 108.856 211.492C108.086 211.492 107.342 211.62 106.623 211.877C105.904 212.134 105.263 212.544 104.698 213.109C104.159 213.674 103.723 214.418 103.389 215.342C103.056 216.24 102.889 217.331 102.889 218.614C102.889 219.949 103.043 221.078 103.351 222.002C103.684 222.926 104.121 223.683 104.66 224.273C105.199 224.864 105.802 225.3 106.469 225.582C107.162 225.839 107.868 225.967 108.586 225.967C109.639 225.967 110.55 225.762 111.32 225.351C112.09 224.941 112.731 224.363 113.245 223.619V213.61ZM137.858 211.685H132.16V222.887C132.16 223.94 132.404 224.645 132.892 225.005C133.405 225.364 134.072 225.544 134.894 225.544C135.535 225.544 136.164 225.48 136.78 225.351C137.396 225.223 137.935 225.082 138.397 224.928L138.82 226.968C138.307 227.173 137.665 227.353 136.896 227.507C136.126 227.661 135.291 227.738 134.393 227.738C131.108 227.738 129.466 226.237 129.466 223.234V211.685H126.501V209.644H129.466V203.87H132.16V209.644H137.858V211.685ZM157.543 218.499C157.543 220.013 157.325 221.373 156.888 222.579C156.452 223.76 155.849 224.761 155.079 225.582C154.309 226.403 153.398 227.032 152.346 227.469C151.319 227.879 150.215 228.085 149.035 228.085C147.829 228.085 146.712 227.892 145.686 227.507C144.659 227.096 143.774 226.506 143.029 225.736C142.285 224.941 141.695 223.978 141.258 222.849C140.822 221.694 140.604 220.372 140.604 218.884C140.604 217.369 140.822 216.022 141.258 214.841C141.72 213.661 142.336 212.673 143.106 211.877C143.876 211.056 144.774 210.44 145.801 210.029C146.853 209.619 147.983 209.413 149.189 209.413C150.369 209.413 151.473 209.606 152.5 209.991C153.526 210.376 154.412 210.953 155.156 211.723C155.9 212.493 156.478 213.443 156.888 214.572C157.325 215.701 157.543 217.01 157.543 218.499ZM154.732 218.691C154.732 217.434 154.566 216.356 154.232 215.457C153.924 214.533 153.501 213.789 152.962 213.225C152.448 212.634 151.845 212.211 151.152 211.954C150.485 211.672 149.792 211.531 149.073 211.531C148.355 211.531 147.649 211.659 146.956 211.916C146.289 212.172 145.686 212.583 145.147 213.148C144.633 213.712 144.21 214.456 143.876 215.38C143.568 216.279 143.414 217.382 143.414 218.691C143.414 220 143.568 221.116 143.876 222.04C144.21 222.964 144.646 223.721 145.185 224.312C145.724 224.876 146.34 225.3 147.033 225.582C147.726 225.839 148.432 225.967 149.15 225.967C149.869 225.967 150.562 225.852 151.229 225.621C151.896 225.364 152.487 224.953 153 224.389C153.539 223.798 153.962 223.041 154.27 222.117C154.578 221.193 154.732 220.051 154.732 218.691ZM185.119 218.691C185.119 220.128 184.901 221.424 184.465 222.579C184.029 223.734 183.438 224.722 182.694 225.544C181.975 226.365 181.116 226.994 180.115 227.43C179.14 227.866 178.1 228.085 176.997 228.085C175.816 228.085 174.789 227.918 173.917 227.584C173.07 227.25 172.261 226.737 171.491 226.044H171.414L171.106 227.738H169.105V200.405H171.799V211.916C172.467 211.171 173.288 210.568 174.263 210.106C175.238 209.644 176.304 209.413 177.458 209.413C178.562 209.413 179.589 209.619 180.538 210.029C181.488 210.414 182.296 211.005 182.964 211.8C183.631 212.596 184.157 213.571 184.542 214.726C184.927 215.881 185.119 217.203 185.119 218.691ZM182.309 218.73C182.309 216.471 181.822 214.726 180.846 213.494C179.871 212.236 178.562 211.608 176.92 211.608C175.893 211.608 174.943 211.864 174.071 212.378C173.198 212.891 172.441 213.533 171.799 214.302V223.927C172.313 224.517 172.967 225.005 173.763 225.39C174.558 225.775 175.418 225.967 176.342 225.967C177.112 225.967 177.856 225.813 178.575 225.505C179.294 225.197 179.922 224.748 180.461 224.158C181.026 223.542 181.475 222.785 181.809 221.886C182.142 220.988 182.309 219.936 182.309 218.73ZM203.378 218.884H190.443V219.23C190.443 221.36 191.02 223.016 192.175 224.196C193.33 225.377 194.908 225.967 196.91 225.967C197.808 225.967 198.643 225.903 199.412 225.775C200.182 225.621 200.978 225.377 201.799 225.043L202.377 227.045C201.658 227.353 200.811 227.597 199.836 227.777C198.886 227.982 197.873 228.085 196.795 228.085C195.537 228.085 194.356 227.905 193.253 227.546C192.149 227.186 191.174 226.634 190.327 225.89C189.506 225.12 188.851 224.145 188.364 222.964C187.876 221.784 187.632 220.372 187.632 218.73C187.632 217.318 187.838 216.035 188.248 214.88C188.659 213.725 189.224 212.75 189.942 211.954C190.686 211.133 191.572 210.504 192.598 210.068C193.651 209.631 194.818 209.413 196.102 209.413C197.205 209.413 198.193 209.606 199.066 209.991C199.964 210.35 200.734 210.876 201.376 211.569C202.017 212.262 202.505 213.096 202.839 214.071C203.198 215.047 203.378 216.125 203.378 217.305V218.884ZM200.606 216.882C200.606 216.163 200.516 215.483 200.336 214.841C200.157 214.174 199.874 213.597 199.489 213.109C199.13 212.596 198.655 212.198 198.065 211.916C197.475 211.608 196.769 211.454 195.948 211.454C194.459 211.454 193.227 211.941 192.252 212.917C191.302 213.892 190.725 215.226 190.52 216.92L200.606 216.882ZM217.548 227.738H214.853V209.644H216.855L217.278 212.147C218.125 211.3 219.036 210.632 220.012 210.145C220.987 209.631 222.155 209.375 223.515 209.375C224.798 209.375 225.85 209.644 226.672 210.183C227.493 210.697 228.109 211.415 228.519 212.339C229.418 211.39 230.406 210.658 231.484 210.145C232.562 209.631 233.755 209.375 235.064 209.375C236.912 209.375 238.298 209.901 239.222 210.953C240.171 211.98 240.646 213.417 240.646 215.265V227.738H237.951V215.881C237.951 214.495 237.656 213.443 237.066 212.724C236.501 211.98 235.487 211.608 234.025 211.608C233.152 211.608 232.279 211.826 231.407 212.262C230.534 212.698 229.751 213.314 229.058 214.11C229.084 214.29 229.097 214.482 229.097 214.687C229.097 214.893 229.097 215.085 229.097 215.265V227.738H226.402V215.881C226.402 214.495 226.12 213.443 225.555 212.724C224.991 211.98 223.99 211.608 222.552 211.608C221.654 211.608 220.769 211.839 219.896 212.301C219.049 212.763 218.266 213.404 217.548 214.225V227.738ZM260.143 218.884H247.208V219.23C247.208 221.36 247.786 223.016 248.94 224.196C250.095 225.377 251.674 225.967 253.676 225.967C254.574 225.967 255.408 225.903 256.178 225.775C256.948 225.621 257.744 225.377 258.565 225.043L259.142 227.045C258.424 227.353 257.577 227.597 256.601 227.777C255.652 227.982 254.638 228.085 253.56 228.085C252.303 228.085 251.122 227.905 250.018 227.546C248.915 227.186 247.94 226.634 247.093 225.89C246.271 225.12 245.617 224.145 245.129 222.964C244.642 221.784 244.398 220.372 244.398 218.73C244.398 217.318 244.603 216.035 245.014 214.88C245.424 213.725 245.989 212.75 246.708 211.954C247.452 211.133 248.337 210.504 249.364 210.068C250.416 209.631 251.584 209.413 252.867 209.413C253.971 209.413 254.959 209.606 255.831 209.991C256.73 210.35 257.5 210.876 258.141 211.569C258.783 212.262 259.271 213.096 259.604 214.071C259.964 215.047 260.143 216.125 260.143 217.305V218.884ZM257.371 216.882C257.371 216.163 257.282 215.483 257.102 214.841C256.922 214.174 256.64 213.597 256.255 213.109C255.896 212.596 255.421 212.198 254.831 211.916C254.24 211.608 253.534 211.454 252.713 211.454C251.225 211.454 249.993 211.941 249.017 212.917C248.068 213.892 247.49 215.226 247.285 216.92L257.371 216.882ZM266.545 227.738H263.85V209.644H265.852L266.275 212.147C267.122 211.3 268.033 210.632 269.008 210.145C269.984 209.631 271.151 209.375 272.512 209.375C273.795 209.375 274.847 209.644 275.668 210.183C276.49 210.697 277.106 211.415 277.516 212.339C278.415 211.39 279.403 210.658 280.481 210.145C281.559 209.631 282.752 209.375 284.061 209.375C285.909 209.375 287.295 209.901 288.219 210.953C289.168 211.98 289.643 213.417 289.643 215.265V227.738H286.948V215.881C286.948 214.495 286.653 213.443 286.063 212.724C285.498 211.98 284.484 211.608 283.021 211.608C282.149 211.608 281.276 211.826 280.404 212.262C279.531 212.698 278.748 213.314 278.055 214.11C278.081 214.29 278.094 214.482 278.094 214.687C278.094 214.893 278.094 215.085 278.094 215.265V227.738H275.399V215.881C275.399 214.495 275.117 213.443 274.552 212.724C273.987 211.98 272.986 211.608 271.549 211.608C270.651 211.608 269.766 211.839 268.893 212.301C268.046 212.763 267.263 213.404 266.545 214.225V227.738ZM310.718 218.691C310.718 220.128 310.5 221.424 310.064 222.579C309.628 223.734 309.037 224.722 308.293 225.544C307.574 226.365 306.715 226.994 305.714 227.43C304.739 227.866 303.699 228.085 302.595 228.085C301.415 228.085 300.388 227.918 299.516 227.584C298.669 227.25 297.86 226.737 297.09 226.044H297.013L296.705 227.738H294.704V200.405H297.398V211.916C298.066 211.171 298.887 210.568 299.862 210.106C300.837 209.644 301.903 209.413 303.057 209.413C304.161 209.413 305.188 209.619 306.137 210.029C307.087 210.414 307.895 211.005 308.563 211.8C309.23 212.596 309.756 213.571 310.141 214.726C310.526 215.881 310.718 217.203 310.718 218.691ZM307.908 218.73C307.908 216.471 307.42 214.726 306.445 213.494C305.47 212.236 304.161 211.608 302.518 211.608C301.492 211.608 300.542 211.864 299.67 212.378C298.797 212.891 298.04 213.533 297.398 214.302V223.927C297.912 224.517 298.566 225.005 299.362 225.39C300.157 225.775 301.017 225.967 301.941 225.967C302.711 225.967 303.455 225.813 304.174 225.505C304.892 225.197 305.521 224.748 306.06 224.158C306.625 223.542 307.074 222.785 307.408 221.886C307.741 220.988 307.908 219.936 307.908 218.73ZM328.977 218.884H316.042V219.23C316.042 221.36 316.619 223.016 317.774 224.196C318.929 225.377 320.507 225.967 322.509 225.967C323.407 225.967 324.242 225.903 325.011 225.775C325.781 225.621 326.577 225.377 327.398 225.043L327.976 227.045C327.257 227.353 326.41 227.597 325.435 227.777C324.485 227.982 323.472 228.085 322.394 228.085C321.136 228.085 319.955 227.905 318.852 227.546C317.748 227.186 316.773 226.634 315.926 225.89C315.105 225.12 314.45 224.145 313.963 222.964C313.475 221.784 313.231 220.372 313.231 218.73C313.231 217.318 313.437 216.035 313.847 214.88C314.258 213.725 314.823 212.75 315.541 211.954C316.285 211.133 317.171 210.504 318.197 210.068C319.25 209.631 320.417 209.413 321.701 209.413C322.804 209.413 323.792 209.606 324.665 209.991C325.563 210.35 326.333 210.876 326.975 211.569C327.616 212.262 328.104 213.096 328.438 214.071C328.797 215.047 328.977 216.125 328.977 217.305V218.884ZM326.205 216.882C326.205 216.163 326.115 215.483 325.935 214.841C325.756 214.174 325.473 213.597 325.088 213.109C324.729 212.596 324.254 212.198 323.664 211.916C323.074 211.608 322.368 211.454 321.547 211.454C320.058 211.454 318.826 211.941 317.851 212.917C316.901 213.892 316.324 215.226 316.119 216.92L326.205 216.882ZM332.606 227.738V209.644H334.531L335.032 213.263C335.468 212.108 336.199 211.184 337.226 210.491C338.253 209.773 339.42 209.413 340.729 209.413C341.371 209.413 341.923 209.465 342.385 209.567C342.847 209.67 343.219 209.785 343.501 209.914L343.001 212.301C342.693 212.147 342.346 212.018 341.961 211.916C341.576 211.813 341.127 211.762 340.614 211.762C339.869 211.762 339.176 211.903 338.535 212.185C337.893 212.442 337.329 212.827 336.841 213.34C336.353 213.853 335.968 214.508 335.686 215.303C335.404 216.099 335.263 217.01 335.263 218.037V227.738H332.606ZM46.281 261.499C46.281 263.013 46.0628 264.373 45.6265 265.579C45.1902 266.76 44.5871 267.761 43.8171 268.582C43.0472 269.403 42.1361 270.032 41.0838 270.469C40.0572 270.879 38.9536 271.085 37.7731 271.085C36.5668 271.085 35.4504 270.892 34.4238 270.507C33.3972 270.096 32.5118 269.506 31.7675 268.736C31.0232 267.941 30.4329 266.978 29.9966 265.849C29.5603 264.694 29.3421 263.372 29.3421 261.884C29.3421 260.369 29.5603 259.022 29.9966 257.841C30.4586 256.661 31.0745 255.673 31.8445 254.877C32.6144 254.056 33.5127 253.44 34.5393 253.029C35.5915 252.619 36.7208 252.413 37.927 252.413C39.1076 252.413 40.2112 252.606 41.2378 252.991C42.2644 253.376 43.1498 253.953 43.8941 254.723C44.6384 255.493 45.2159 256.443 45.6265 257.572C46.0628 258.701 46.281 260.01 46.281 261.499ZM43.4707 261.691C43.4707 260.434 43.3038 259.356 42.9702 258.457C42.6622 257.533 42.2387 256.789 41.6998 256.225C41.1865 255.634 40.5834 255.211 39.8904 254.954C39.2231 254.672 38.5302 254.531 37.8115 254.531C37.0929 254.531 36.3871 254.659 35.6942 254.916C35.0269 255.172 34.4238 255.583 33.8848 256.148C33.3715 256.712 32.9481 257.456 32.6144 258.38C32.3064 259.279 32.1524 260.382 32.1524 261.691C32.1524 263 32.3064 264.116 32.6144 265.04C32.9481 265.964 33.3844 266.721 33.9233 267.312C34.4623 267.876 35.0782 268.3 35.7712 268.582C36.4641 268.839 37.1699 268.967 37.8885 268.967C38.6072 268.967 39.3001 268.852 39.9674 268.621C40.6347 268.364 41.225 267.953 41.7383 267.389C42.2772 266.798 42.7007 266.041 43.0087 265.117C43.3167 264.193 43.4707 263.051 43.4707 261.691ZM56.5802 243.212C57.2988 243.212 58.0431 243.315 58.813 243.52C59.6087 243.726 60.3144 243.982 60.9304 244.29L60.3529 246.215C59.8396 245.959 59.3007 245.766 58.736 245.638C58.1971 245.484 57.6838 245.407 57.1962 245.407C55.9386 245.407 55.0146 245.766 54.4243 246.485C53.8341 247.178 53.5389 248.371 53.5389 250.065V252.644H59.3905V254.685H53.5389V270.738H50.8441V254.685H47.8798V252.644H50.8441V249.334C50.8441 247.332 51.3446 245.817 52.3455 244.791C53.3464 243.739 54.758 243.212 56.5802 243.212ZM78.9871 254.685H73.2895V265.887C73.2895 266.94 73.5334 267.645 74.021 268.005C74.5343 268.364 75.2016 268.544 76.0228 268.544C76.6645 268.544 77.2933 268.48 77.9092 268.351C78.5252 268.223 79.0641 268.082 79.5261 267.928L79.9496 269.968C79.4363 270.173 78.7947 270.353 78.0247 270.507C77.2548 270.661 76.4206 270.738 75.5224 270.738C72.2373 270.738 70.5947 269.237 70.5947 266.234V254.685H67.6304V252.644H70.5947V246.87H73.2895V252.644H78.9871V254.685ZM85.7368 270.738H83.042V243.405H85.7368V255.031C86.5837 254.287 87.5205 253.671 88.5471 253.183C89.5737 252.67 90.703 252.413 91.9349 252.413C92.9358 252.413 93.8084 252.567 94.5527 252.875C95.297 253.158 95.9001 253.568 96.3621 254.107C96.8497 254.62 97.209 255.236 97.44 255.955C97.6966 256.648 97.825 257.418 97.825 258.265V270.738H95.1301V258.996C95.1301 257.431 94.7837 256.314 94.0907 255.647C93.4234 254.954 92.4738 254.608 91.2419 254.608C90.3436 254.608 89.4197 254.839 88.4701 255.301C87.5462 255.763 86.6351 256.404 85.7368 257.225V270.738ZM103.186 270.738V252.644H105.881V270.738H103.186ZM104.533 247.986C104.02 247.986 103.584 247.819 103.224 247.486C102.891 247.152 102.724 246.716 102.724 246.177C102.724 245.638 102.891 245.201 103.224 244.868C103.584 244.509 104.02 244.329 104.533 244.329C104.995 244.329 105.406 244.496 105.765 244.829C106.15 245.163 106.342 245.612 106.342 246.177C106.342 246.741 106.163 247.191 105.804 247.524C105.444 247.832 105.021 247.986 104.533 247.986ZM120.911 255.493C120.166 255.134 119.448 254.877 118.755 254.723C118.088 254.569 117.382 254.492 116.638 254.492C115.329 254.492 114.353 254.749 113.712 255.262C113.07 255.775 112.749 256.443 112.749 257.264C112.749 258.008 112.993 258.599 113.481 259.035C113.994 259.445 114.944 259.856 116.33 260.267L117.484 260.613C119.076 261.101 120.282 261.755 121.103 262.577C121.95 263.398 122.374 264.463 122.374 265.772C122.374 267.312 121.796 268.582 120.641 269.583C119.486 270.584 117.831 271.085 115.675 271.085C114.52 271.085 113.455 270.982 112.48 270.777C111.505 270.597 110.658 270.327 109.939 269.968L110.632 267.851C111.325 268.21 112.069 268.492 112.865 268.698C113.66 268.877 114.533 268.967 115.483 268.967C116.792 268.967 117.805 268.723 118.524 268.236C119.268 267.722 119.64 266.978 119.64 266.003C119.64 265.182 119.345 264.54 118.755 264.078C118.19 263.59 117.266 263.141 115.983 262.731L114.751 262.346C113.16 261.832 111.979 261.191 111.209 260.421C110.439 259.625 110.054 258.624 110.054 257.418C110.054 256.674 110.208 255.994 110.516 255.378C110.824 254.762 111.261 254.236 111.825 253.799C112.39 253.363 113.044 253.029 113.789 252.798C114.559 252.542 115.406 252.413 116.33 252.413C117.176 252.413 118.062 252.49 118.986 252.644C119.91 252.798 120.77 253.055 121.565 253.414L120.911 255.493ZM142.014 269.044C142.835 269.044 143.566 268.954 144.208 268.775C144.85 268.595 145.465 268.364 146.056 268.082L146.633 270.045C145.247 270.738 143.618 271.085 141.744 271.085C140.487 271.085 139.306 270.892 138.202 270.507C137.099 270.122 136.123 269.545 135.277 268.775C134.455 267.979 133.801 267.004 133.313 265.849C132.851 264.668 132.62 263.295 132.62 261.73C132.62 260.292 132.838 258.996 133.275 257.841C133.737 256.687 134.365 255.711 135.161 254.916C135.982 254.094 136.945 253.478 138.048 253.068C139.152 252.631 140.371 252.413 141.706 252.413C142.501 252.413 143.271 252.477 144.015 252.606C144.785 252.708 145.632 252.965 146.556 253.376L145.94 255.455C145.273 255.095 144.619 254.851 143.977 254.723C143.361 254.569 142.719 254.492 142.052 254.492C140.05 254.492 138.433 255.121 137.201 256.379C135.995 257.636 135.392 259.381 135.392 261.614C135.392 263.026 135.585 264.206 135.969 265.156C136.354 266.106 136.855 266.875 137.471 267.466C138.087 268.03 138.793 268.441 139.588 268.698C140.384 268.929 141.192 269.044 142.014 269.044ZM164.922 261.499C164.922 263.013 164.704 264.373 164.267 265.579C163.831 266.76 163.228 267.761 162.458 268.582C161.688 269.403 160.777 270.032 159.725 270.469C158.698 270.879 157.595 271.085 156.414 271.085C155.208 271.085 154.091 270.892 153.065 270.507C152.038 270.096 151.153 269.506 150.408 268.736C149.664 267.941 149.074 266.978 148.638 265.849C148.201 264.694 147.983 263.372 147.983 261.884C147.983 260.369 148.201 259.022 148.638 257.841C149.099 256.661 149.715 255.673 150.485 254.877C151.255 254.056 152.154 253.44 153.18 253.029C154.232 252.619 155.362 252.413 156.568 252.413C157.749 252.413 158.852 252.606 159.879 252.991C160.905 253.376 161.791 253.953 162.535 254.723C163.279 255.493 163.857 256.443 164.267 257.572C164.704 258.701 164.922 260.01 164.922 261.499ZM162.112 261.691C162.112 260.434 161.945 259.356 161.611 258.457C161.303 257.533 160.88 256.789 160.341 256.225C159.827 255.634 159.224 255.211 158.531 254.954C157.864 254.672 157.171 254.531 156.452 254.531C155.734 254.531 155.028 254.659 154.335 254.916C153.668 255.172 153.065 255.583 152.526 256.148C152.012 256.712 151.589 257.456 151.255 258.38C150.947 259.279 150.793 260.382 150.793 261.691C150.793 263 150.947 264.116 151.255 265.04C151.589 265.964 152.025 266.721 152.564 267.312C153.103 267.876 153.719 268.3 154.412 268.582C155.105 268.839 155.811 268.967 156.529 268.967C157.248 268.967 157.941 268.852 158.608 268.621C159.276 268.364 159.866 267.953 160.379 267.389C160.918 266.798 161.342 266.041 161.65 265.117C161.958 264.193 162.112 263.051 162.112 261.691ZM171.333 270.738H168.638V252.644H170.64L171.063 255.147C171.91 254.3 172.821 253.632 173.797 253.145C174.772 252.631 175.94 252.375 177.3 252.375C178.583 252.375 179.635 252.644 180.457 253.183C181.278 253.697 181.894 254.415 182.305 255.339C183.203 254.39 184.191 253.658 185.269 253.145C186.347 252.631 187.54 252.375 188.849 252.375C190.697 252.375 192.083 252.901 193.007 253.953C193.956 254.98 194.431 256.417 194.431 258.265V270.738H191.736V258.881C191.736 257.495 191.441 256.443 190.851 255.724C190.286 254.98 189.273 254.608 187.81 254.608C186.937 254.608 186.065 254.826 185.192 255.262C184.319 255.698 183.537 256.314 182.844 257.11C182.869 257.29 182.882 257.482 182.882 257.687C182.882 257.893 182.882 258.085 182.882 258.265V270.738H180.187V258.881C180.187 257.495 179.905 256.443 179.34 255.724C178.776 254.98 177.775 254.608 176.338 254.608C175.439 254.608 174.554 254.839 173.681 255.301C172.834 255.763 172.051 256.404 171.333 257.225V270.738ZM202.11 270.738H199.415V252.644H201.417L201.84 255.147C202.687 254.3 203.598 253.632 204.574 253.145C205.549 252.631 206.717 252.375 208.077 252.375C209.36 252.375 210.412 252.644 211.234 253.183C212.055 253.697 212.671 254.415 213.081 255.339C213.98 254.39 214.968 253.658 216.046 253.145C217.124 252.631 218.317 252.375 219.626 252.375C221.474 252.375 222.86 252.901 223.784 253.953C224.733 254.98 225.208 256.417 225.208 258.265V270.738H222.513V258.881C222.513 257.495 222.218 256.443 221.628 255.724C221.063 254.98 220.049 254.608 218.587 254.608C217.714 254.608 216.841 254.826 215.969 255.262C215.096 255.698 214.313 256.314 213.62 257.11C213.646 257.29 213.659 257.482 213.659 257.687C213.659 257.893 213.659 258.085 213.659 258.265V270.738H210.964V258.881C210.964 257.495 210.682 256.443 210.117 255.724C209.553 254.98 208.552 254.608 207.114 254.608C206.216 254.608 205.331 254.839 204.458 255.301C203.611 255.763 202.828 256.404 202.11 257.225V270.738ZM242.318 252.644H245.013V270.738H242.973L242.588 268.467H242.472C241.805 269.185 240.971 269.801 239.97 270.315C238.969 270.828 237.801 271.085 236.467 271.085C234.593 271.085 233.079 270.571 231.924 269.545C230.769 268.492 230.192 266.888 230.192 264.732V252.644H232.886V264.309C232.886 265.207 232.989 265.952 233.194 266.542C233.4 267.132 233.682 267.607 234.041 267.966C234.426 268.326 234.863 268.582 235.35 268.736C235.864 268.865 236.415 268.929 237.006 268.929C238.109 268.929 239.11 268.685 240.008 268.197C240.932 267.71 241.702 267.081 242.318 266.311V252.644ZM252.686 270.738H249.991V252.644H252.031L252.455 255.147C253.353 254.3 254.29 253.632 255.265 253.145C256.266 252.657 257.408 252.413 258.691 252.413C260.539 252.413 261.989 252.927 263.041 253.953C264.094 254.98 264.62 256.417 264.62 258.265V270.738H261.925V258.765C261.925 257.559 261.617 256.571 261.001 255.801C260.385 255.005 259.358 254.608 257.921 254.608C257.023 254.608 256.112 254.839 255.188 255.301C254.264 255.737 253.43 256.366 252.686 257.187V270.738ZM269.948 270.738V252.644H272.643V270.738H269.948ZM271.296 247.986C270.782 247.986 270.346 247.819 269.987 247.486C269.653 247.152 269.486 246.716 269.486 246.177C269.486 245.638 269.653 245.201 269.987 244.868C270.346 244.509 270.782 244.329 271.296 244.329C271.758 244.329 272.168 244.496 272.528 244.829C272.913 245.163 273.105 245.612 273.105 246.177C273.105 246.741 272.925 247.191 272.566 247.524C272.207 247.832 271.783 247.986 271.296 247.986ZM287.327 254.685H281.629V265.887C281.629 266.94 281.873 267.645 282.361 268.005C282.874 268.364 283.541 268.544 284.363 268.544C285.004 268.544 285.633 268.48 286.249 268.351C286.865 268.223 287.404 268.082 287.866 267.928L288.289 269.968C287.776 270.173 287.134 270.353 286.364 270.507C285.594 270.661 284.76 270.738 283.862 270.738C280.577 270.738 278.934 269.237 278.934 266.234V254.685H275.97V252.644H278.934V246.87H281.629V252.644H287.327V254.685ZM289.294 252.644H292.143L296.416 263.847L297.763 268.043H297.84L299.111 263.847L302.96 252.644H305.655L298.687 272.278C297.943 274.357 297.006 275.987 295.877 277.167C294.773 278.373 293.439 279.272 291.873 279.862L290.757 277.783C292.014 277.27 293.105 276.564 294.029 275.666C294.953 274.767 295.697 273.471 296.262 271.777L296.608 270.738L289.294 252.644Z" fill="white" fill-opacity="0.7"/>
<path d="M28.2845 164.736C28.2845 164.059 28.534 163.382 29.033 162.705C29.5321 162.027 30.1024 161.689 30.744 161.689C31.1361 161.689 31.5995 161.92 32.1342 162.384C32.7045 162.812 33.257 163.293 33.7917 163.827C34.3264 164.326 35.1284 164.808 36.1978 165.271C37.3028 165.699 38.5326 165.913 39.8871 165.913C41.9189 165.913 43.5408 165.431 44.7528 164.469C46.0004 163.507 46.6242 162.099 46.6242 160.245C46.6242 158.534 46.0182 157.108 44.8062 155.968C43.6299 154.827 42.1863 153.918 40.4753 153.241C38.7999 152.563 37.1068 151.833 35.3958 151.048C33.6848 150.264 32.2233 149.088 31.0114 147.52C29.8351 145.951 29.2469 143.991 29.2469 141.638C29.2469 139.749 29.6034 138.109 30.3163 136.719C31.0648 135.329 32.0629 134.259 33.3105 133.511C34.5581 132.762 35.8592 132.228 37.2137 131.907C38.6039 131.55 40.0654 131.372 41.5981 131.372C42.5606 131.372 43.5586 131.443 44.5924 131.586C45.6617 131.693 46.7133 131.889 47.747 132.174C48.7807 132.459 49.6362 132.869 50.3135 133.404C50.9908 133.939 51.3294 134.545 51.3294 135.222C51.3294 135.899 51.1155 136.576 50.6878 137.254C50.26 137.931 49.6897 138.269 48.9768 138.269C48.6203 138.269 48.1391 138.109 47.5331 137.788C46.9272 137.432 46.1073 137.093 45.0736 136.772C44.0755 136.416 42.917 136.238 41.5981 136.238C39.5663 136.238 37.9444 136.648 36.7325 137.467C35.5205 138.252 34.9146 139.464 34.9146 141.103C34.9146 142.173 35.2354 143.099 35.877 143.884C36.5186 144.632 37.3385 145.256 38.3366 145.755C39.3703 146.254 40.5109 146.753 41.7585 147.252C43.0061 147.716 44.2359 148.268 45.4479 148.91C46.6955 149.551 47.8183 150.3 48.8164 151.155C49.8501 151.975 50.6878 153.116 51.3294 154.577C51.971 156.039 52.2918 157.732 52.2918 159.657C52.2918 163.364 51.169 166.198 48.9233 168.158C46.7133 170.083 43.7725 171.046 40.101 171.046C36.8216 171.046 34.0234 170.368 31.7065 169.014C29.4251 167.624 28.2845 166.198 28.2845 164.736ZM54.6294 163.988C54.6294 161.136 55.6988 159.158 57.8375 158.053C59.9763 156.912 63.0774 156.342 67.141 156.342H69.4936V155.379C69.4936 153.811 69.0481 152.456 68.1569 151.316C67.3014 150.175 65.9825 149.605 64.2003 149.605C62.6675 149.605 61.313 149.872 60.1367 150.407C58.996 150.942 58.3722 151.209 58.2653 151.209C57.6593 151.209 57.1602 150.924 56.7681 150.353C56.4117 149.747 56.2335 149.088 56.2335 148.375C56.2335 147.448 57.089 146.646 58.7999 145.969C60.5466 145.292 62.3823 144.953 64.3072 144.953C67.9787 144.953 70.6878 145.951 72.4344 147.947C74.2167 149.908 75.1078 152.367 75.1078 155.326V168.747C75.1078 169.246 74.8405 169.691 74.3058 170.083C73.8068 170.44 73.1652 170.618 72.3809 170.618C71.668 170.618 71.0621 170.44 70.563 170.083C70.064 169.691 69.8145 169.246 69.8145 168.747V166.875C67.4262 169.655 64.735 171.046 61.7407 171.046C59.6733 171.046 57.9623 170.44 56.6077 169.228C55.2888 168.016 54.6294 166.269 54.6294 163.988ZM60.2971 163.293C60.2971 164.433 60.6179 165.307 61.2595 165.913C61.9011 166.483 62.7388 166.768 63.7725 166.768C65.1271 166.768 66.4103 166.198 67.6223 165.057C68.8698 163.917 69.4936 162.705 69.4936 161.421V159.443H68.1569C66.5529 159.443 65.234 159.514 64.2003 159.657C63.2022 159.799 62.2932 160.174 61.4734 160.78C60.6892 161.386 60.2971 162.223 60.2971 163.293ZM77.1998 147.466C77.1998 146.824 77.6097 146.272 78.4296 145.809C79.2494 145.309 80.0693 145.06 80.8891 145.06C81.7803 145.06 82.3506 145.399 82.6001 146.076L88.9629 162.972L95.3256 146.183C95.6108 145.434 96.1811 145.06 97.0366 145.06C97.7139 145.06 98.4981 145.309 99.3892 145.809C100.28 146.308 100.726 146.86 100.726 147.466C100.726 147.716 100.655 148.019 100.512 148.375L91.5294 170.03C91.2085 170.778 90.353 171.153 88.9629 171.153C87.5727 171.153 86.7172 170.778 86.3964 170.03L77.4671 148.375C77.2889 148.019 77.1998 147.716 77.1998 147.466ZM102.227 160.405V155.326C102.227 152.51 103.314 150.086 105.489 148.054C107.663 145.987 110.283 144.953 113.349 144.953C116.272 144.953 118.767 145.898 120.834 147.787C122.937 149.64 123.989 151.993 123.989 154.845C123.989 155.914 123.864 156.787 123.615 157.465C123.365 158.106 122.973 158.57 122.438 158.855C121.904 159.104 121.405 159.265 120.941 159.336C120.478 159.407 119.872 159.443 119.123 159.443H107.841V160.673C107.841 162.455 108.483 163.881 109.766 164.95C111.05 165.984 112.725 166.501 114.792 166.501C116.254 166.501 117.626 166.162 118.909 165.485C120.228 164.808 121.03 164.469 121.315 164.469C121.921 164.469 122.438 164.754 122.866 165.325C123.294 165.895 123.508 166.447 123.508 166.982C123.508 167.873 122.652 168.782 120.941 169.709C119.23 170.6 117.127 171.046 114.632 171.046C110.996 171.046 108.02 170.065 105.703 168.105C103.386 166.144 102.227 163.578 102.227 160.405ZM107.841 155.968H116.717C117.501 155.968 118.018 155.861 118.268 155.647C118.553 155.433 118.696 155.005 118.696 154.363C118.696 152.938 118.179 151.726 117.145 150.728C116.111 149.73 114.828 149.231 113.295 149.231C111.798 149.231 110.515 149.712 109.445 150.674C108.376 151.601 107.841 152.795 107.841 154.257V155.968ZM138.202 168.747V133.35C138.202 132.744 138.47 132.299 139.004 132.014C139.575 131.693 140.252 131.532 141.036 131.532C141.82 131.532 142.48 131.693 143.015 132.014C143.585 132.299 143.87 132.744 143.87 133.35V165.592H157.772C158.306 165.592 158.716 165.841 159.002 166.34C159.322 166.839 159.483 167.428 159.483 168.105C159.483 168.782 159.322 169.37 159.002 169.869C158.716 170.368 158.306 170.618 157.772 170.618H140.715C140.038 170.618 139.45 170.458 138.951 170.137C138.452 169.78 138.202 169.317 138.202 168.747ZM161.812 135.97C161.812 135.15 162.133 134.455 162.774 133.885C163.416 133.315 164.182 133.03 165.074 133.03C165.965 133.03 166.731 133.315 167.373 133.885C168.014 134.455 168.335 135.15 168.335 135.97C168.335 136.755 168.014 137.45 167.373 138.056C166.731 138.626 165.965 138.911 165.074 138.911C164.182 138.911 163.416 138.626 162.774 138.056C162.133 137.45 161.812 136.755 161.812 135.97ZM162.293 168.747V147.092C162.293 146.557 162.543 146.129 163.042 145.809C163.576 145.452 164.254 145.274 165.074 145.274C165.893 145.274 166.571 145.452 167.105 145.809C167.64 146.129 167.907 146.557 167.907 147.092V168.747C167.907 169.21 167.622 169.638 167.052 170.03C166.517 170.422 165.858 170.618 165.074 170.618C164.289 170.618 163.63 170.422 163.095 170.03C162.561 169.638 162.293 169.21 162.293 168.747ZM173.032 168.8V140.408C173.032 137.557 173.959 135.15 175.812 133.19C177.666 131.194 179.894 130.196 182.496 130.196H184.956C185.633 130.196 186.167 130.445 186.56 130.944C186.952 131.408 187.148 131.96 187.148 132.602C187.148 133.243 186.952 133.814 186.56 134.313C186.167 134.776 185.633 135.008 184.956 135.008H183.565C182.14 135.008 180.963 135.471 180.036 136.398C179.11 137.325 178.646 138.483 178.646 139.874V145.274H185.597C186.061 145.274 186.435 145.488 186.72 145.915C187.005 146.308 187.148 146.789 187.148 147.359C187.148 147.929 187.005 148.428 186.72 148.856C186.435 149.248 186.061 149.444 185.597 149.444H178.646V168.8C178.646 169.335 178.361 169.78 177.791 170.137C177.22 170.458 176.543 170.618 175.759 170.618C174.975 170.618 174.315 170.458 173.781 170.137C173.282 169.78 173.032 169.335 173.032 168.8ZM188.08 160.405V155.326C188.08 152.51 189.167 150.086 191.341 148.054C193.516 145.987 196.136 144.953 199.201 144.953C202.124 144.953 204.619 145.898 206.687 147.787C208.79 149.64 209.841 151.993 209.841 154.845C209.841 155.914 209.717 156.787 209.467 157.465C209.218 158.106 208.825 158.57 208.291 158.855C207.756 159.104 207.257 159.265 206.794 159.336C206.33 159.407 205.724 159.443 204.976 159.443H193.694V160.673C193.694 162.455 194.335 163.881 195.619 164.95C196.902 165.984 198.577 166.501 200.645 166.501C202.106 166.501 203.479 166.162 204.762 165.485C206.081 164.808 206.883 164.469 207.168 164.469C207.774 164.469 208.291 164.754 208.719 165.325C209.146 165.895 209.36 166.447 209.36 166.982C209.36 167.873 208.505 168.782 206.794 169.709C205.083 170.6 202.98 171.046 200.484 171.046C196.849 171.046 193.872 170.065 191.555 168.105C189.238 166.144 188.08 163.578 188.08 160.405ZM193.694 155.968H202.57C203.354 155.968 203.871 155.861 204.12 155.647C204.405 155.433 204.548 155.005 204.548 154.363C204.548 152.938 204.031 151.726 202.997 150.728C201.964 149.73 200.68 149.231 199.148 149.231C197.651 149.231 196.367 149.712 195.298 150.674C194.229 151.601 193.694 152.795 193.694 154.257V155.968Z" fill="white"/>
<g clip-path="url(#clip0)">
<path d="M593.348 187.369H582.881C580.169 187.369 577.974 189.425 577.974 191.965V247.118C577.974 249.659 580.169 251.714 582.881 251.714H593.348C601.465 251.714 608.068 245.529 608.068 237.926V201.157C608.068 193.554 601.465 187.369 593.348 187.369Z" fill="#FBE1E1"/>
<path d="M743.981 196.285C743.393 195.366 742.608 194.63 741.725 193.987C738.112 191.026 732.025 191.306 728.477 194.906L706.201 218.99L705.514 219.725C702.766 222.574 698.841 224.137 694.719 224.137H656.644C653.896 224.137 651.737 222.115 651.737 219.541C651.737 216.967 653.896 214.945 656.644 214.945H686.574C691.972 214.945 696.388 210.809 696.388 205.753V205.661C696.289 200.605 691.972 196.561 686.574 196.561H668.812C665.87 196.561 662.716 195.549 660.177 193.527C648.205 183.692 630.737 183.048 617.881 191.413V247.945C627.596 250.427 637.606 251.714 647.713 251.714H691.481C702.275 251.714 712.481 246.934 718.958 238.845L742.51 209.43C745.946 205.205 746.205 199.41 743.981 196.285Z" fill="#FBE1E1"/>
</g>
<g clip-path="url(#clip1)" filter="url(#filter0_d)">
<path d="M682.042 171.702C698.268 171.702 711.421 158.783 711.421 142.846C711.421 126.91 682.042 97.5022 682.042 97.5022V171.702Z" fill="white"/>
<path d="M652.661 142.846C652.661 158.783 665.815 171.702 682.041 171.702V97.5022C682.041 97.5022 652.661 126.91 652.661 142.846ZM663.153 142.846C663.164 151.949 670.675 159.325 679.943 159.336C670.675 159.325 663.164 151.949 663.153 142.846Z" fill="#FCC0B0"/>
<path d="M696.731 87.1975C696.742 96.2998 704.251 103.676 713.519 103.686V60.3062C704.495 70.9314 696.731 82.4942 696.731 87.1975Z" fill="#FCC0B0"/>
<path d="M713.519 60.2976V103.685C722.787 103.676 730.297 96.2992 730.307 87.197C730.307 82.8335 723.028 71.469 713.519 60.2976Z" fill="white"/>
<path d="M683.34 66.9983C681.172 62.8199 678.63 58.839 675.745 55.1018V76.8914C679.249 76.8896 682.383 74.7546 683.613 71.5334C684.148 70.0469 684.05 68.4118 683.34 66.9983Z" fill="white"/>
<path d="M675.746 76.8915V55.1038C672.872 58.8151 670.329 62.7631 668.145 66.9041C667.437 68.3168 667.331 69.9483 667.849 71.4384C669.052 74.7067 672.208 76.8862 675.746 76.8915Z" fill="#FCC0B0"/>
<path d="M679.943 161.397C669.517 161.385 661.067 153.086 661.055 142.846H665.252C665.263 150.811 671.834 157.264 679.943 157.274V161.397Z" fill="#FF5454"/>
</g>
<defs>
<filter id="filter0_d" x="627.483" y="55.1018" width="127.275" height="125.155" filterUnits="userSpaceOnUse" color-interpolation-filters="sRGB">
<feFlood flood-opacity="0" result="BackgroundImageFix"/>
<feColorMatrix in="SourceAlpha" type="matrix" values="0 0 0 0 0 0 0 0 0 0 0 0 0 0 0 0 0 0 127 0"/>
<feOffset dy="4.27748"/>
<feGaussianBlur stdDeviation="2.13874"/>
<feColorMatrix type="matrix" values="0 0 0 0 0 0 0 0 0 0 0 0 0 0 0 0 0 0 0.25 0"/>
<feBlend mode="normal" in2="BackgroundImageFix" result="effect1_dropShadow"/>
<feBlend mode="normal" in="SourceGraphic" in2="effect1_dropShadow" result="shape"/>
</filter>
<clipPath id="clip0">
<rect width="167.48" height="156.88" fill="white" transform="translate(578.76 173.822)"/>
</clipPath>
<clipPath id="clip1">
<rect width="118.72" height="116.6" fill="white" transform="translate(631.76 55.1018)"/>
</clipPath>
</defs>
</svg>
